<svg width="72" height="73" viewBox="0 0 72 73" fill="none" xmlns="http://www.w3.org/2000/svg">
<g clip-path="url(#clip0_6189_14738)">
<rect y="0.859985" width="72" height="72" rx="4" fill="white"/>
<g clip-path="url(#clip1_6189_14738)">
<path fill-rule="evenodd" clip-rule="evenodd" d="M42.0432 40.0747C40.4424 40.0747 41.4864 36.5377 41.7642 35.7439C42.0606 34.8973 42.8736 33.1387 43.5726 32.6185C44.3766 32.0191 45.2634 32.0221 46.2246 32.1625C46.4388 32.1925 47.3604 32.3893 47.568 32.4877L47.2314 34.1653L46.6848 35.2633C46.4994 35.6203 45.9612 36.4879 45.7338 36.7909L44.6712 38.1583L43.6818 39.2341C43.3356 39.5809 42.5322 40.0747 42.0432 40.0747ZM46.6848 36.4897C46.6848 36.6487 46.4604 37.7149 46.4112 37.9615C46.3152 38.4487 46.23 38.9251 46.1292 39.4225C45.9318 40.3975 46.1964 41.5699 47.3454 41.5741C48.4632 41.5771 49.4718 40.8763 50.178 40.2787C50.4282 40.0669 50.508 39.9703 50.742 39.7387C50.8188 39.6613 51.102 39.3283 51.1326 39.2443C51.1542 39.1807 51.2508 38.5711 51.2508 38.4793L50.676 39.0817C50.6724 39.0859 50.667 39.0919 50.6652 39.0955C50.6394 39.1201 50.6652 39.0979 50.6262 39.1315C50.3076 39.4063 50.0442 39.7045 49.65 39.9715C49.3206 40.1971 48.63 40.6867 48.21 40.4401C47.7684 40.1809 48.0414 39.1543 48.1152 38.7793C48.1686 38.5057 48.2364 38.2195 48.2952 37.9285C48.5784 36.4981 48.909 35.0791 49.1916 33.6685L49.7292 31.0885C49.4544 31.0885 49.1622 31.0429 48.993 31.0375C47.9148 30.9835 46.7892 30.9319 45.72 31.1053C45.1068 31.2043 44.5728 31.3567 44.0748 31.5715C43.686 31.7383 43.2282 31.9981 42.888 32.2525L42.4506 32.5999C42.0078 32.9335 41.4342 33.4921 41.1024 33.9037C40.2084 35.0143 39.6672 36.0409 39.3372 37.4431C39.0924 38.4901 39.0354 39.9823 39.7428 40.9285C40.5426 42.0001 41.7738 41.5909 42.7386 41.0161C43.0056 40.8571 43.251 40.6555 43.4916 40.4665C43.5516 40.4233 43.5786 40.3879 43.6362 40.3417C43.9512 40.0873 44.1684 39.8521 44.4558 39.5659L44.958 39.0115C45.4326 38.4511 46.2126 37.3501 46.5768 36.6535C46.6218 36.5701 46.6164 36.5383 46.6848 36.4897ZM21.468 28.8277L19.7838 28.8127V27.8209L21.6636 27.8089C21.6666 27.6421 21.732 27.3979 21.7632 27.2353C22.0518 25.7803 22.0188 24.8761 22.9674 23.7007C23.6586 22.8463 24.8424 22.5595 25.92 22.8781C26.1072 22.9351 26.2494 22.9951 26.4096 23.0761L26.8686 23.3053L28.3236 21.8623C28.1862 21.8521 27.9468 21.8047 27.8202 21.7891C26.1312 21.7015 24.624 21.8233 23.1264 22.7287C21.4524 23.7421 20.2458 25.5877 19.8324 27.4891C19.743 27.9007 19.797 27.8077 19.6026 27.7987L17.2884 27.7951C17.1594 27.8011 17.1678 27.8131 17.1666 27.9433L17.1702 28.8301H19.5756C19.5756 28.9699 19.4142 29.7745 19.3794 29.9851C19.317 30.3643 19.2456 30.7399 19.173 31.1281C18.8892 32.6251 18.645 34.2541 18.3546 35.7361C18.2784 36.1219 18.216 36.4981 18.1512 36.8839C18.0876 37.2709 18.012 37.6525 17.9412 38.0473C17.5734 40.0933 17.3394 42.9469 15.003 43.2361C14.055 43.3543 13.437 43.1077 12.6516 42.9247L12.3606 43.2721C12.2616 43.3945 12.1524 43.4965 12.0522 43.6261L11.526 44.2309C11.46 44.3143 11.4354 44.3143 11.4258 44.4307C12.6438 44.4307 13.8702 44.5807 15.0372 44.1559C15.1338 44.1211 15.222 44.0875 15.3216 44.0485C15.918 43.8115 16.3422 43.5157 16.8294 43.1257L17.2326 42.7435C17.3532 42.5869 17.5812 42.3565 17.7936 42.0763C17.9148 41.9173 18.0114 41.7595 18.1236 41.5939C18.231 41.4313 18.315 41.2771 18.414 41.1001C19.2918 39.5293 19.8462 37.3939 20.1948 35.6389C20.2818 35.2051 20.382 34.7239 20.4564 34.2787C20.6796 32.9365 20.9868 31.5313 21.2142 30.1993L21.468 28.8277Z" fill="#312783"/>
<path fill-rule="evenodd" clip-rule="evenodd" d="M21.4688 28.8278L60.1658 28.829L60.5834 27.7976L53.4872 27.7904L53.1422 27.806C52.8404 27.7676 37.4786 27.7982 37.3784 27.7982H22.6226C22.343 27.7982 21.866 27.821 21.665 27.809L19.7852 27.821V28.8128L21.4688 28.8278ZM53.7326 31.898C54.0482 31.898 54.389 31.8752 54.6344 32.1242C55.052 32.5442 54.7862 33.3602 54.6956 33.8438C54.6314 34.1942 54.5732 34.5068 54.503 34.8542L53.9306 37.8662C53.8196 38.417 53.3882 40.5284 53.3882 40.9334C53.3882 41.5082 53.429 42.1166 53.8352 42.5252C54.2342 42.9248 54.5408 43.046 55.1558 43.046C55.9934 43.046 56.9804 42.5162 57.6314 42.083L59.072 40.9454C59.1068 40.8638 59.0852 40.2392 59.0852 40.0982C58.9706 40.1288 58.8614 40.3094 58.7204 40.4228C58.2668 40.7834 58.1108 40.9814 57.509 41.3468C57.1616 41.5568 56.3756 41.9408 56.0288 41.51C55.7078 41.1104 55.865 40.3712 55.9568 39.9164L58.0298 29.6876C57.9086 29.7452 57.6968 29.795 57.5486 29.8442C56.7626 30.107 55.8872 30.3554 55.1048 30.6176L52.6622 31.3922C52.4036 31.466 52.247 31.4876 52.2344 31.6268C52.1666 32.36 52.1498 32.285 52.4018 32.2124C52.4804 32.189 52.5836 32.1662 52.6742 32.1404C52.8752 32.0828 53.5472 31.898 53.7326 31.898Z" fill="#EC6726"/>
<path fill-rule="evenodd" clip-rule="evenodd" d="M31.8783 33.9115C31.8783 34.7389 32.1345 35.2933 32.6217 35.7715L34.0185 37.3465C34.2465 37.6297 34.4607 37.7719 34.6707 38.1919C35.1531 39.1549 34.9173 40.1965 33.7605 40.4575C33.4881 40.5175 33.3045 40.4989 33.0321 40.4917C32.6445 40.4821 32.1195 40.2979 31.7691 40.1581C31.2243 39.9403 31.1457 39.8431 30.6999 39.6079C30.6129 39.7375 30.0429 40.2901 29.9199 40.4239L29.4471 40.9327C29.6559 41.0437 30.4347 41.2741 30.6567 41.3209C32.2299 41.6533 33.7551 41.5645 35.0805 40.6495C35.3865 40.4371 35.7969 40.0357 35.9877 39.7135C36.1161 39.4975 36.1959 39.3655 36.2835 39.1021C36.5607 38.2633 36.3867 37.3915 35.8593 36.7315L34.2459 34.7605C34.0521 34.5151 33.7599 34.2121 33.6297 33.9511C33.4563 33.6025 33.3225 33.2971 33.3753 32.8057C33.4587 32.0239 34.3467 31.5787 35.0199 31.5787C35.3301 31.5787 35.5749 31.5703 35.8767 31.6795C36.3207 31.8391 36.7881 32.1919 36.7881 32.7319C36.7881 33.1333 36.7581 33.0421 36.7383 33.2719H37.3527C37.4079 33.1597 37.5675 32.4217 37.6047 32.2477L37.8435 31.1851C37.6149 31.1317 37.4511 31.0117 36.9279 30.9217C35.8797 30.7429 34.9107 30.8233 33.9387 31.2589C33.5907 31.4149 33.1347 31.6801 32.8665 31.9531L32.6439 32.1739C32.2179 32.6641 31.8783 33.1771 31.8783 33.9115ZM23.2113 33.9853C23.2113 34.5025 23.3991 35.0977 23.7129 35.4979L24.8919 36.8233C24.9369 36.8809 24.9603 36.8989 25.0101 36.9493L25.6119 37.6249C25.8723 37.8811 26.2563 38.5123 26.2563 39.0175C26.2563 39.5005 26.1255 39.9031 25.7787 40.1611C24.8619 40.8511 23.5281 40.3915 22.6287 39.9421C22.5261 39.8917 22.4475 39.8437 22.3437 39.7867C22.2519 39.7369 22.1535 39.6547 22.0563 39.6319L21.1089 40.5991C20.9817 40.7647 20.8341 40.8499 20.8047 40.9579C20.9103 40.9819 20.9913 41.0197 21.0783 41.0527C21.1779 41.0893 21.2793 41.1205 21.3717 41.1511C22.9593 41.6857 25.0629 41.6587 26.4063 40.6681C26.7579 40.4065 27.0447 40.1539 27.2907 39.7849C27.9537 38.8039 27.9051 37.6447 27.1875 36.7099L25.1313 34.2001C25.0371 34.0945 24.9987 34.0177 24.9357 33.8797C24.7923 33.5593 24.7083 33.3751 24.7083 32.9773C24.7083 31.1911 28.1463 31.0729 28.1463 32.8555C28.1463 33.0343 28.0995 33.1249 28.0977 33.2719C28.8087 33.2719 28.7121 33.3283 28.7697 33.0613C28.7913 32.9629 28.8087 32.8795 28.8291 32.8009C28.8873 32.5633 29.1513 31.3141 29.2017 31.2097C28.7025 30.9451 27.8997 30.8413 27.2139 30.8413C26.1141 30.8413 24.8397 31.3387 24.2727 31.9033C24.1875 31.9873 24.1233 32.0233 24.0387 32.1109C23.9883 32.1649 23.9847 32.1805 23.9403 32.2339C23.5989 32.6377 23.3553 33.0037 23.2599 33.5665C23.2425 33.6691 23.2113 33.8773 23.2113 33.9853Z" fill="#312783"/>
<path fill-rule="evenodd" clip-rule="evenodd" d="M55.0577 26.9139C54.9245 27.1113 54.5075 27.3291 54.2387 27.4203C54.0425 27.4869 53.6615 27.5835 53.4347 27.6003C53.3141 27.6081 53.2163 27.6255 53.1173 27.6255C53.1173 27.7251 53.1137 27.7335 53.1413 27.8055L53.4863 27.7899C53.5469 27.7629 54.3119 27.7395 54.9245 27.2955C55.3133 27.0153 55.0157 27.1071 55.4609 27.0459C55.6043 27.0267 55.6763 27.0285 55.8095 27.0015C57.8501 26.5869 58.6517 23.9301 58.6673 22.0503L58.7099 21.3075C58.7387 21.1065 58.7171 20.7477 58.7171 20.5293H58.6679C58.6415 20.8539 58.0367 21.7689 57.8333 22.0521C56.5679 23.4663 54.6095 24.8541 55.0577 26.9139Z" fill="#15882E"/>
<path fill-rule="evenodd" clip-rule="evenodd" d="M53.7128 25.3022C54.2132 25.3022 54.6194 25.7078 54.6194 26.207C54.6194 26.7062 54.2138 27.1118 53.7128 27.1118C53.2136 27.1118 52.8086 26.7068 52.8086 26.207C52.8086 25.7078 53.2136 25.3022 53.7128 25.3022Z" fill="#844403"/>
<path fill-rule="evenodd" clip-rule="evenodd" d="M57.2388 43.8025L56.745 44.7901H11.418V44.6053C13.7766 44.7685 15.33 44.4505 16.3362 43.8055L57.2388 43.8025Z" fill="#15882E"/>
<path d="M14.5898 48.5972H14.9552V51.1214H16.1648V51.428H14.5898V48.5972ZM16.9718 48.824C16.976 48.95 16.8836 49.0508 16.7366 49.0508C16.6064 49.0508 16.514 48.95 16.514 48.824C16.514 48.6938 16.6106 48.593 16.745 48.593C16.883 48.5924 16.9718 48.6932 16.9718 48.824ZM16.5596 51.428V49.3952H16.9292V51.428H16.5596ZM18.992 51.3524C18.8954 51.4028 18.6812 51.47 18.4082 51.47C17.795 51.47 17.396 51.0542 17.396 50.4326C17.396 49.8068 17.8244 49.3532 18.488 49.3532C18.7064 49.3532 18.8996 49.4078 19.0004 49.4582L18.9164 49.7438C18.8282 49.6934 18.6896 49.6472 18.488 49.6472C18.0218 49.6472 17.7698 49.9916 17.7698 50.4158C17.7698 50.8862 18.0722 51.176 18.4754 51.176C18.6854 51.176 18.824 51.1214 18.929 51.0752L18.992 51.3524ZM19.2938 51.2096C19.2938 51.0542 19.3988 50.945 19.5458 50.945C19.6928 50.945 19.7936 51.0542 19.7936 51.2096C19.7936 51.3608 19.697 51.4742 19.5416 51.4742C19.3946 51.4742 19.2938 51.3608 19.2938 51.2096ZM21.1544 51.428V48.5972H21.5534L22.4606 50.0294C22.6706 50.3612 22.8344 50.6594 22.9688 50.9492L22.9772 50.945C22.9436 50.567 22.9352 50.2226 22.9352 49.7816V48.5972H23.2796V51.428H22.91L22.0112 49.9916C21.8138 49.6766 21.6248 49.3532 21.482 49.0466L21.4694 49.0508C21.4904 49.4078 21.4988 49.748 21.4988 50.2184V51.428H21.1544ZM25.745 50.3948C25.745 51.1466 25.2242 51.4742 24.7328 51.4742C24.1826 51.4742 23.7584 51.071 23.7584 50.4284C23.7584 49.748 24.2036 49.349 24.7664 49.349C25.3502 49.349 25.745 49.7732 25.745 50.3948ZM24.1322 50.4158C24.1322 50.861 24.3884 51.197 24.7496 51.197C25.1024 51.197 25.367 50.8652 25.367 50.4074C25.367 50.063 25.1948 49.6262 24.758 49.6262C24.3212 49.6262 24.1322 50.0294 24.1322 50.4158ZM26.0222 51.2096C26.0222 51.0542 26.1272 50.945 26.2742 50.945C26.4212 50.945 26.522 51.0542 26.522 51.2096C26.522 51.3608 26.4254 51.4742 26.27 51.4742C26.123 51.4742 26.0222 51.3608 26.0222 51.2096ZM28.5548 49.0424H28.5464L28.0718 49.2986L28.0004 49.0172L28.5968 48.698H28.9118V51.428H28.5548V49.0424ZM31.7216 50.0336C31.7216 50.9618 31.3772 51.4742 30.7724 51.4742C30.239 51.4742 29.8778 50.9744 29.8694 50.0714C29.8694 49.1558 30.2642 48.6518 30.8186 48.6518C31.394 48.6518 31.7216 49.1642 31.7216 50.0336ZM30.239 50.0756C30.239 50.7854 30.4574 51.1886 30.7934 51.1886C31.1714 51.1886 31.352 50.7476 31.352 50.0504C31.352 49.3784 31.1798 48.9374 30.7976 48.9374C30.4742 48.9374 30.239 49.3322 30.239 50.0756ZM33.8762 50.0336C33.8762 50.9618 33.5318 51.4742 32.927 51.4742C32.3936 51.4742 32.0324 50.9744 32.024 50.0714C32.024 49.1558 32.4188 48.6518 32.9732 48.6518C33.5486 48.6518 33.8762 49.1642 33.8762 50.0336ZM32.3936 50.0756C32.3936 50.7854 32.612 51.1886 32.948 51.1886C33.326 51.1886 33.5066 50.7476 33.5066 50.0504C33.5066 49.3784 33.3344 48.9374 32.9522 48.9374C32.6288 48.9374 32.3936 49.3322 32.3936 50.0756ZM35.0186 49.0424H35.0102L34.5356 49.2986L34.4642 49.0172L35.0606 48.698H35.3756V51.428H35.0186V49.0424ZM38.1434 48.6974V48.941L36.9548 51.4274H36.5726L37.757 49.0124V49.004H36.4214V48.6974H38.1434ZM40.34 50.0336C40.34 50.9618 39.9956 51.4742 39.3908 51.4742C38.8574 51.4742 38.4962 50.9744 38.4878 50.0714C38.4878 49.1558 38.8826 48.6518 39.437 48.6518C40.0124 48.6518 40.34 49.1642 40.34 50.0336ZM38.8568 50.0756C38.8568 50.7854 39.0752 51.1886 39.4112 51.1886C39.7892 51.1886 39.9698 50.7476 39.9698 50.0504C39.9698 49.3784 39.7976 48.9374 39.4154 48.9374C39.0926 48.9374 38.8568 49.3322 38.8568 50.0756ZM41.4818 49.0424H41.4734L40.9988 49.2986L40.9274 49.0172L41.5238 48.698H41.8388V51.428H41.4818V49.0424ZM43.6364 49.0424H43.628L43.1534 49.2986L43.082 49.0172L43.6784 48.698H43.9934V51.428H43.6364V49.0424ZM46.8038 50.0336C46.8038 50.9618 46.4594 51.4742 45.8546 51.4742C45.3212 51.4742 44.96 50.9744 44.9516 50.0714C44.9516 49.1558 45.3464 48.6518 45.9008 48.6518C46.4756 48.6518 46.8038 49.1642 46.8038 50.0336ZM45.3206 50.0756C45.3206 50.7854 45.539 51.1886 45.875 51.1886C46.253 51.1886 46.4336 50.7476 46.4336 50.0504C46.4336 49.3784 46.2614 48.9374 45.8792 48.9374C45.5558 48.9374 45.3206 49.3322 45.3206 50.0756ZM48.9578 50.0336C48.9578 50.9618 48.6134 51.4742 48.0086 51.4742C47.4752 51.4742 47.114 50.9744 47.1056 50.0714C47.1056 49.1558 47.5004 48.6518 48.0548 48.6518C48.6302 48.6518 48.9578 49.1642 48.9578 50.0336ZM47.4752 50.0756C47.4752 50.7854 47.6936 51.1886 48.0296 51.1886C48.4076 51.1886 48.5882 50.7476 48.5882 50.0504C48.5882 49.3784 48.416 48.9374 48.0338 48.9374C47.7104 48.9374 47.4752 49.3322 47.4752 50.0756ZM50.4404 51.428V50.6846H49.172V50.441L50.39 48.698H50.789V50.3948H51.1712V50.6846H50.789V51.428H50.4404ZM50.4404 50.3948V49.4834C50.4404 49.3406 50.4446 49.1978 50.453 49.055H50.4404C50.3564 49.2146 50.2892 49.3322 50.2136 49.4582L49.5458 50.3864V50.3948H50.4404ZM51.4526 51.428V51.2012L51.7424 50.9198C52.4396 50.2562 52.7546 49.9034 52.7588 49.4918C52.7588 49.2146 52.6244 48.9584 52.217 48.9584C51.9692 48.9584 51.7634 49.0844 51.6374 49.1894L51.5198 48.929C51.7088 48.7694 51.9776 48.6518 52.2926 48.6518C52.8806 48.6518 53.1284 49.055 53.1284 49.4456C53.1284 49.9496 52.763 50.357 52.1876 50.9114L51.9692 51.113V51.1214H53.1956V51.428H51.4526ZM53.6072 51.428V51.2012L53.897 50.9198C54.5942 50.2562 54.9092 49.9034 54.9134 49.4918C54.9134 49.2146 54.779 48.9584 54.3716 48.9584C54.1238 48.9584 53.918 49.0844 53.792 49.1894L53.6744 48.929C53.8634 48.7694 54.1322 48.6518 54.4472 48.6518C55.0352 48.6518 55.283 49.055 55.283 49.4456C55.283 49.9496 54.9176 50.357 54.3422 50.9114L54.1238 51.113V51.1214H55.3502V51.428H53.6072ZM57.5762 50.0336C57.5762 50.9618 57.2318 51.4742 56.627 51.4742C56.0936 51.4742 55.7324 50.9744 55.724 50.0714C55.724 49.1558 56.1188 48.6518 56.6732 48.6518C57.2486 48.6518 57.5762 49.1642 57.5762 50.0336ZM56.0936 50.0756C56.0936 50.7854 56.312 51.1886 56.648 51.1886C57.026 51.1886 57.2066 50.7476 57.2066 50.0504C57.2066 49.3784 57.0344 48.9374 56.6522 48.9374C56.3288 48.9374 56.0936 49.3322 56.0936 50.0756Z" fill="black"/>
</g>
</g>
<defs>
<clipPath id="clip0_6189_14738">
<rect y="0.859985" width="72" height="72" rx="4" fill="white"/>
</clipPath>
<clipPath id="clip1_6189_14738">
<rect width="72" height="72" fill="white" transform="translate(0 0.859985)"/>
</clipPath>
</defs>
</svg>
